# Wavefront OBJ file written 2026-03-16T13:01:08
o ahmedBody_corrected_edgeMesh

# points : 352
# lines  : 352

# <points count="352">
v -0.00876222 0 -0.0409791
v -0.00876222 0 -0.281882
v -0.00876222 0.389 -0.281882
v -0.00876222 0.389 -0.0409791
v 0.24112 0 -0.281882
v 0.213355 0 -0.281882
v 0.268885 0 -0.281882
v 0.921188 0 0.00611797
v 0.935238 0 0.00611797
v 0.907138 0 0.00611797
v -0.000345555 0 -0.0370543
v -0.00876222 0 -0.0650694
v 0.00807111 0 -0.0331296
v -0.00876222 0 -0.0891597
v 0.0190025 0 -0.281882
v -0.00876222 0 -0.257792
v -0.00876222 0 -0.233701
v 0.0467672 0 -0.281882
v -0.00876222 0 -0.161431
v -0.00876222 0 -0.13734
v -0.00876222 0 -0.185521
v 0.574297 0 -0.281882
v 0.546532 0 -0.281882
v 0.602061 0 -0.281882
v 0.407708 0 -0.281882
v 0.379944 0 -0.281882
v 0.435473 0 -0.281882
v 0.569938 0 0.00611797
v 0.598038 0 0.00611797
v 0.541838 0 0.00611797
v 0.457538 0 0.00611797
v 0.485638 0 0.00611797
v 0.429438 0 0.00611797
v 0.685355 0 -0.281882
v 0.657591 0 -0.281882
v 0.71312 0 -0.281882
v 0.740885 0 -0.281882
v 0.76865 0 -0.281882
v 0.130061 0 -0.281882
v 0.102297 0 -0.281882
v 0.157826 0 -0.281882
v 0.29665 0 -0.281882
v 0.324414 0 -0.281882
v 0.463238 0 -0.281882
v 0.491002 0 -0.281882
v 0.232738 0 0.00611797
v 0.260838 0 0.00611797
v 0.204638 0 0.00611797
v 0.401338 0 0.00611797
v 0.373238 0 0.00611797
v 0.629826 0 -0.281882
v -0.00876222 0 -0.11325
v 0.345138 0 0.00611797
v 0.317038 0 0.00611797
v 0.626138 0 0.00611797
v 0.654238 0 0.00611797
v 0.176538 0 0.00611797
v 0.148438 0 0.00611797
v 0.850938 0 0.00611797
v 0.879038 0 0.00611797
v 0.822838 0 0.00611797
v 0.738538 0 0.00611797
v 0.766638 0 0.00611797
v 0.710438 0 0.00611797
v 0.794738 0 0.00611797
v 0.0164878 0 -0.0292048
v 0.0249044 0 -0.0252801
v 0.0333211 0 -0.0213553
v 0.0417378 0 -0.0174306
v 0.185591 0 -0.281882
v -0.00876222 0 -0.209611
v 0.0745319 0 -0.281882
v 0.682338 0 0.00611797
v 0.893088 0 0.00611797
v 0.893591 0 -0.281882
v 0.879708 0 -0.281882
v 0.907473 0 -0.281882
v 0.796414 0 -0.281882
v 0.824179 0 -0.281882
v 0.935238 0 -0.281882
v 0.921355 0 -0.281882
v 0.851944 0 -0.281882
v 0.0669878 0 -0.0056563
v 0.0754044 0 -0.00173154
v 0.0585711 0 -0.00958105
v 0.0501544 0 -0.0135058
v 0.0922378 0 0.00611797
v 0.120338 0 0.00611797
v 0.0838211 0 0.00219322
v 0.288938 0 0.00611797
v 0.513738 0 0.00611797
v 0.352179 0 -0.281882
v 0.518767 0 -0.281882
v -0.00876222 0.0277857 -0.281882
v -0.00876222 0.0555714 -0.281882
v 0.185591 0.389 -0.281882
v 0.157826 0.389 -0.281882
v 0.213355 0.389 -0.281882
v 0.629826 0.389 -0.281882
v 0.602061 0.389 -0.281882
v 0.657591 0.389 -0.281882
v 0.352179 0.389 -0.281882
v 0.324414 0.389 -0.281882
v 0.379944 0.389 -0.281882
v -0.00876222 0.305643 -0.281882
v -0.00876222 0.277857 -0.281882
v -0.00876222 0.333429 -0.281882
v 0.0745319 0.389 -0.281882
v 0.0467672 0.389 -0.281882
v 0.102297 0.389 -0.281882
v -0.00876222 0.361214 -0.281882
v 0.0190025 0.389 -0.281882
v 0.851944 0.389 -0.281882
v 0.824179 0.389 -0.281882
v 0.879708 0.389 -0.281882
v -0.00876222 0.250071 -0.281882
v -0.00876222 0.222286 -0.281882
v 0.518767 0.389 -0.281882
v 0.491002 0.389 -0.281882
v 0.546532 0.389 -0.281882
v 0.407708 0.389 -0.281882
v 0.435473 0.389 -0.281882
v 0.796414 0.389 -0.281882
v 0.76865 0.389 -0.281882
v 0.740885 0.389 -0.281882
v 0.71312 0.389 -0.281882
v 0.29665 0.389 -0.281882
v 0.268885 0.389 -0.281882
v 0.130061 0.389 -0.281882
v 0.463238 0.389 -0.281882
v 0.574297 0.389 -0.281882
v 0.935238 0.389 -0.281882
v 0.921355 0.389 -0.281882
v 0.907473 0.389 -0.281882
v 0.24112 0.389 -0.281882
v -0.00876222 0.138929 -0.281882
v -0.00876222 0.111143 -0.281882
v -0.00876222 0.166714 -0.281882
v -0.00876222 0.1945 -0.281882
v -0.00876222 0.0833571 -0.281882
v 0.685355 0.389 -0.281882
v 0.893591 0.389 -0.281882
v 0.0922378 0.389 0.00611797
v 0.106288 0.389 0.00611797
v 0.120338 0.389 0.00611797
v 0.457538 0.389 0.00611797
v 0.485638 0.389 0.00611797
v 0.429438 0.389 0.00611797
v 0.513738 0.389 0.00611797
v 0.541838 0.389 0.00611797
v 0.401338 0.389 0.00611797
v 0.373238 0.389 0.00611797
v 0.850938 0.389 0.00611797
v 0.879038 0.389 0.00611797
v 0.822838 0.389 0.00611797
v 0.738538 0.389 0.00611797
v 0.766638 0.389 0.00611797
v 0.710438 0.389 0.00611797
v 0.682338 0.389 0.00611797
v 0.654238 0.389 0.00611797
v 0.134388 0.389 0.00611797
v 0.148438 0.389 0.00611797
v 0.176538 0.389 0.00611797
v 0.204638 0.389 0.00611797
v 0.288938 0.389 0.00611797
v 0.317038 0.389 0.00611797
v 0.260838 0.389 0.00611797
v 0.345138 0.389 0.00611797
v 0.232738 0.389 0.00611797
v 0.626138 0.389 0.00611797
v 0.598038 0.389 0.00611797
v 0.921188 0.389 0.00611797
v 0.935238 0.389 0.00611797
v 0.907138 0.389 0.00611797
v 0.794738 0.389 0.00611797
v 0.569938 0.389 0.00611797
v 0.893088 0.389 0.00611797
v -0.000345555 0.389 -0.0370543
v -0.00876222 0.379 -0.0409791
v 0.00807111 0.389 -0.0331296
v -0.00876222 0.369 -0.0409791
v 0.0838211 0.389 0.00219322
v 0.0754044 0.389 -0.00173154
v -0.00876222 0.00963333 -0.0409791
v -0.00876222 0.0192667 -0.0409791
v -0.00876222 0.289 -0.0409791
v -0.00876222 0.299 -0.0409791
v -0.00876222 0.309 -0.0409791
v -0.00876222 0.0481667 -0.0409791
v -0.00876222 0.0578 -0.0409791
v -0.00876222 0.0385333 -0.0409791
v 0.0164878 0.389 -0.0292048
v 0.0249044 0.389 -0.0252801
v 0.0669878 0.389 -0.0056563
v 0.0585711 0.389 -0.00958105
v -0.00876222 0.0289 -0.0409791
v -0.00876222 0.105967 -0.0409791
v -0.00876222 0.1156 -0.0409791
v -0.00876222 0.0963333 -0.0409791
v -0.00876222 0.0674333 -0.0409791
v -0.00876222 0.0770667 -0.0409791
v 0.0501544 0.389 -0.0135058
v 0.0417378 0.389 -0.0174306
v -0.00876222 0.319 -0.0409791
v -0.00876222 0.329 -0.0409791
v -0.00876222 0.2023 -0.0409791
v -0.00876222 0.211933 -0.0409791
v -0.00876222 0.192667 -0.0409791
v -0.00876222 0.1445 -0.0409791
v -0.00876222 0.154133 -0.0409791
v -0.00876222 0.134867 -0.0409791
v -0.00876222 0.0867 -0.0409791
v -0.00876222 0.240833 -0.0409791
v -0.00876222 0.250467 -0.0409791
v -0.00876222 0.2312 -0.0409791
v -0.00876222 0.221567 -0.0409791
v -0.00876222 0.125233 -0.0409791
v -0.00876222 0.2601 -0.0409791
v -0.00876222 0.269733 -0.0409791
v -0.00876222 0.163767 -0.0409791
v -0.00876222 0.1734 -0.0409791
v -0.00876222 0.183033 -0.0409791
v -0.00876222 0.279367 -0.0409791
v 0.0333211 0.389 -0.0213553
v -0.00876222 0.359 -0.0409791
v -0.00876222 0.349 -0.0409791
v -0.00876222 0.339 -0.0409791
v 1.02028 0.341596 -0.0412865
v 1.0183 0.344668 -0.0382138
v 1.01619 0.347697 -0.0351854
v 1.01619 0.347697 -0.240579
v 1.0183 0.344668 -0.23755
v 1.02028 0.341596 -0.234478
v 0.971747 0.382097 -0.00078512
v 0.967507 0.383649 0.000766512
v 0.963146 0.385023 0.00214056
v 0.958676 0.386209 0.00332658
v 0.95411 0.387197 0.00431456
v 0.95411 0.387197 -0.280079
v 0.958676 0.386209 -0.279091
v 0.963146 0.385023 -0.277905
v 0.967507 0.383649 -0.276531
v 0.971747 0.382097 -0.274979
v 1.01395 0.350677 -0.0322055
v 1.01157 0.353603 -0.029279
v 1.00904 0.356471 -0.0264113
v 1.00638 0.359274 -0.0236084
v 1.01157 0.353603 -0.246485
v 1.01395 0.350677 -0.243559
v 1.00638 0.359274 -0.252156
v 1.00904 0.356471 -0.249353
v 1.00358 0.362005 -0.020877
v 1.00062 0.364658 -0.0182235
v 1.00062 0.364658 -0.257541
v 1.00358 0.362005 -0.254887
v 0.949466 0.387977 0.0050952
v 0.944759 0.388542 0.00566029
v 0.944759 0.388542 -0.281424
v 0.949466 0.387977 -0.280859
v 0.997525 0.367227 -0.015655
v 0.994279 0.369703 -0.013179
v 0.940009 0.388885 0.00600293
v 0.990886 0.372078 -0.0108036
v 0.987346 0.374344 -0.00853809
v 0.983659 0.37649 -0.00639222
v 0.979829 0.378505 -0.00437681
v 0.994279 0.369703 -0.262585
v 0.997525 0.367227 -0.260109
v 0.940009 0.388885 -0.281767
v 0.987346 0.374344 -0.267226
v 0.990886 0.372078 -0.26496
v 0.979829 0.378505 -0.271387
v 0.983659 0.37649 -0.269372
v 0.975857 0.380378 -0.00250358
v 0.975857 0.380378 -0.27326
v 1.02213 0.338483 -0.231365
v 1.02385 0.335333 -0.228215
v 1.02385 0.335333 -0.0475487
v 1.02213 0.338483 -0.0443993
v 1.02545 0.332151 -0.225033
v 1.02692 0.328938 -0.22182
v 1.02692 0.328938 -0.0539439
v 1.02545 0.332151 -0.0507312
v 1.02826 0.325698 -0.21858
v 1.02826 0.325698 -0.0571837
v 1.01619 0.0413034 -0.0351854
v 1.01395 0.0383235 -0.0322055
v 1.01157 0.035397 -0.029279
v 1.00904 0.0325293 -0.0264113
v 1.00638 0.0297264 -0.0236084
v 0.979829 0.0104948 -0.00437681
v 0.975857 0.00862155 -0.00250358
v 0.971747 0.00690309 -0.00078512
v 0.987346 0.0146561 -0.00853809
v 0.983659 0.0125102 -0.00639222
v 1.00358 0.0269949 -0.020877
v 1.00062 0.0243415 -0.0182235
v 0.997525 0.021773 -0.015655
v 0.994279 0.0192969 -0.013179
v 0.967507 0.00535146 0.000766512
v 0.963146 0.00397741 0.00214056
v 0.958676 0.00279139 0.00332658
v 0.95411 0.00180342 0.00431456
v 0.949466 0.00102277 0.0050952
v 0.944759 0.000457684 0.00566029
v 0.990886 0.0169216 -0.0108036
v 0.940009 0.000115039 0.00600293
v 1.02028 0.0474044 -0.0412865
v 1.0183 0.0443318 -0.0382138
v 1.02385 0.0536666 -0.0475487
v 1.02213 0.0505173 -0.0443993
v 1.02692 0.0600618 -0.0539439
v 1.02545 0.0568492 -0.0507312
v 1.02826 0.0633017 -0.0571837
v 0.944759 0.000457684 -0.281424
v 0.940009 0.000115039 -0.281767
v 0.95411 0.00180342 -0.280079
v 0.949466 0.00102277 -0.280859
v 0.963146 0.00397741 -0.277905
v 0.958676 0.00279139 -0.279091
v 0.971747 0.00690309 -0.274979
v 0.967507 0.00535146 -0.276531
v 0.979829 0.0104948 -0.271387
v 0.975857 0.00862155 -0.27326
v 0.987346 0.0146561 -0.267226
v 0.983659 0.0125102 -0.269372
v 0.994279 0.0192969 -0.262585
v 0.990886 0.0169216 -0.26496
v 1.00062 0.0243415 -0.257541
v 0.997525 0.021773 -0.260109
v 1.00638 0.0297264 -0.252156
v 1.00358 0.0269949 -0.254887
v 1.01157 0.035397 -0.246485
v 1.00904 0.0325293 -0.249353
v 1.01619 0.0413034 -0.240579
v 1.01395 0.0383235 -0.243559
v 1.02028 0.0474044 -0.234478
v 1.0183 0.0443318 -0.23755
v 1.02385 0.0536666 -0.228215
v 1.02213 0.0505173 -0.231365
v 1.02692 0.0600618 -0.22182
v 1.02545 0.0568492 -0.225033
v 1.02826 0.0633017 -0.21858
v -0.00876222 0.389 -0.257792
v -0.00876222 0.389 -0.233701
v -0.00876222 0.389 -0.185521
v -0.00876222 0.389 -0.209611
v -0.00876222 0.389 -0.0891597
v -0.00876222 0.389 -0.11325
v -0.00876222 0.389 -0.13734
v -0.00876222 0.389 -0.161431
v -0.00876222 0.389 -0.0650694
# </points>

# <edges count="352">
l 5 6
l 7 5
l 8 9
l 10 8
l 1 11
l 12 1
l 11 13
l 14 12
l 15 2
l 2 16
l 16 17
l 18 15
l 19 20
l 21 19
l 22 23
l 24 22
l 25 26
l 27 25
l 28 29
l 30 28
l 31 32
l 33 31
l 34 35
l 36 34
l 37 36
l 38 37
l 39 40
l 41 39
l 42 7
l 43 42
l 44 27
l 45 44
l 46 47
l 48 46
l 49 33
l 50 49
l 51 24
l 35 51
l 52 14
l 20 52
l 53 50
l 54 53
l 55 56
l 29 55
l 57 48
l 58 57
l 59 60
l 61 59
l 62 63
l 64 62
l 65 61
l 63 65
l 66 67
l 13 66
l 68 69
l 67 68
l 70 41
l 6 70
l 71 21
l 17 71
l 72 18
l 40 72
l 73 64
l 56 73
l 60 74
l 74 10
l 75 76
l 77 75
l 78 38
l 79 78
l 80 81
l 81 77
l 82 79
l 76 82
l 83 84
l 85 83
l 86 85
l 69 86
l 87 88
l 88 58
l 89 87
l 84 89
l 90 54
l 47 90
l 91 30
l 32 91
l 92 43
l 26 92
l 93 45
l 23 93
l 94 2
l 95 94
l 96 97
l 98 96
l 99 100
l 101 99
l 102 103
l 104 102
l 105 106
l 107 105
l 108 109
l 110 108
l 3 111
l 111 107
l 112 3
l 109 112
l 113 114
l 115 113
l 116 117
l 106 116
l 118 119
l 120 118
l 121 104
l 122 121
l 123 124
l 114 123
l 125 126
l 124 125
l 127 128
l 103 127
l 129 110
l 97 129
l 130 122
l 119 130
l 131 120
l 100 131
l 132 133
l 133 134
l 135 98
l 128 135
l 136 137
l 138 136
l 139 138
l 117 139
l 140 95
l 137 140
l 141 101
l 126 141
l 142 115
l 134 142
l 143 144
l 144 145
l 146 147
l 148 146
l 149 150
l 147 149
l 151 148
l 152 151
l 153 154
l 155 153
l 156 157
l 158 156
l 159 158
l 160 159
l 161 162
l 145 161
l 163 164
l 162 163
l 165 166
l 167 165
l 168 152
l 166 168
l 169 167
l 164 169
l 170 160
l 171 170
l 172 173
l 174 172
l 175 155
l 157 175
l 176 171
l 150 176
l 154 177
l 177 174
l 4 178
l 179 4
l 178 180
l 181 179
l 182 143
l 183 182
l 1 184
l 184 185
l 186 187
l 187 188
l 189 190
l 191 189
l 192 193
l 180 192
l 194 183
l 195 194
l 196 191
l 185 196
l 197 198
l 199 197
l 200 201
l 190 200
l 202 195
l 203 202
l 204 205
l 188 204
l 206 207
l 208 206
l 209 210
l 211 209
l 212 199
l 201 212
l 213 214
l 215 213
l 216 215
l 207 216
l 217 211
l 198 217
l 218 219
l 214 218
l 220 221
l 210 220
l 222 208
l 221 222
l 223 186
l 219 223
l 224 203
l 193 224
l 225 181
l 226 225
l 227 226
l 205 227
l 228 229
l 229 230
l 231 232
l 232 233
l 234 235
l 235 236
l 236 237
l 237 238
l 239 240
l 240 241
l 241 242
l 242 243
l 230 244
l 244 245
l 245 246
l 246 247
l 248 249
l 249 231
l 250 251
l 251 248
l 247 252
l 252 253
l 254 255
l 255 250
l 238 256
l 256 257
l 258 259
l 259 239
l 253 260
l 260 261
l 257 262
l 262 173
l 261 263
l 263 264
l 264 265
l 265 266
l 267 268
l 268 254
l 132 269
l 269 258
l 270 271
l 271 267
l 272 273
l 273 270
l 266 274
l 274 234
l 243 275
l 275 272
l 233 276
l 276 277
l 278 279
l 279 228
l 277 280
l 280 281
l 282 283
l 283 278
l 281 284
l 285 282
l 286 287
l 287 288
l 288 289
l 289 290
l 291 292
l 292 293
l 294 295
l 295 291
l 290 296
l 296 297
l 297 298
l 298 299
l 293 300
l 300 301
l 301 302
l 302 303
l 303 304
l 304 305
l 299 306
l 306 294
l 305 307
l 307 9
l 308 309
l 309 286
l 310 311
l 311 308
l 312 313
l 313 310
l 314 312
l 315 316
l 316 80
l 317 318
l 318 315
l 319 320
l 320 317
l 321 322
l 322 319
l 323 324
l 324 321
l 325 326
l 326 323
l 327 328
l 328 325
l 329 330
l 330 327
l 331 332
l 332 329
l 333 334
l 334 331
l 335 336
l 336 333
l 337 338
l 338 335
l 339 340
l 340 337
l 341 342
l 342 339
l 343 341
l 344 3
l 345 344
l 346 347
l 347 345
l 348 349
l 349 350
l 350 351
l 351 346
l 4 352
l 352 348
# </edges>
