v 0.24112 0 -0.281882
v -0.75888 0 -0.281882
l 1 2
v 0.268885 0 -0.281882
v -0.731115 0 -0.281882
l 3 4
v 0.921188 0 0.00611797
v 1.92119 0 0.00611797
l 5 6
v 0.907138 0 0.00611797
v 1.90714 0 0.00611797
l 7 8
v -0.00876222 0 -0.0409791
v 0.897546 0 0.381639
l 9 10
v -0.00876222 0 -0.0650694
v -0.00876222 0 0.934931
l 11 12
v -0.000345555 0 -0.0370543
v 0.905962 0 0.385564
l 13 14
v -0.00876222 0 -0.0891597
v -0.00876222 0 0.91084
l 15 16
v 0.0190025 0 -0.281882
v -0.980998 0 -0.281882
l 17 18
v -0.00876222 0 -0.281882
v -0.00876222 0 0.718118
l 19 20
v -0.00876222 0 -0.257792
v -0.00876222 0 0.742208
l 21 22
v 0.0467672 0 -0.281882
v -0.953233 0 -0.281882
l 23 24
v -0.00876222 0 -0.161431
v -0.00876222 0 0.838569
l 25 26
v -0.00876222 0 -0.185521
v -0.00876222 0 0.814479
l 27 28
v 0.574297 0 -0.281882
v -0.425703 0 -0.281882
l 29 30
v 0.602061 0 -0.281882
v -0.397939 0 -0.281882
l 31 32
v 0.407708 0 -0.281882
v -0.592292 0 -0.281882
l 33 34
v 0.435473 0 -0.281882
v -0.564527 0 -0.281882
l 35 36
v 0.569938 0 0.00611797
v 1.56994 0 0.00611797
l 37 38
v 0.541838 0 0.00611797
v 1.54184 0 0.00611797
l 39 40
v 0.457538 0 0.00611797
v 1.45754 0 0.00611797
l 41 42
v 0.429438 0 0.00611797
v 1.42944 0 0.00611797
l 43 44
v 0.685355 0 -0.281882
v -0.314645 0 -0.281882
l 45 46
v 0.71312 0 -0.281882
v -0.28688 0 -0.281882
l 47 48
v 0.740885 0 -0.281882
v -0.259115 0 -0.281882
l 49 50
v 0.76865 0 -0.281882
v -0.23135 0 -0.281882
l 51 52
v 0.130061 0 -0.281882
v -0.869939 0 -0.281882
l 53 54
v 0.157826 0 -0.281882
v -0.842174 0 -0.281882
l 55 56
v 0.29665 0 -0.281882
v -0.70335 0 -0.281882
l 57 58
v 0.324414 0 -0.281882
v -0.675586 0 -0.281882
l 59 60
v 0.463238 0 -0.281882
v -0.536762 0 -0.281882
l 61 62
v 0.491002 0 -0.281882
v -0.508998 0 -0.281882
l 63 64
v 0.232738 0 0.00611797
v 1.23274 0 0.00611797
l 65 66
v 0.204638 0 0.00611797
v 1.20464 0 0.00611797
l 67 68
v 0.401338 0 0.00611797
v 1.40134 0 0.00611797
l 69 70
v 0.373238 0 0.00611797
v 1.37324 0 0.00611797
l 71 72
v 0.629826 0 -0.281882
v -0.370174 0 -0.281882
l 73 74
v 0.657591 0 -0.281882
v -0.342409 0 -0.281882
l 75 76
v -0.00876222 0 -0.11325
v -0.00876222 0 0.88675
l 77 78
v -0.00876222 0 -0.13734
v -0.00876222 0 0.86266
l 79 80
v 0.345138 0 0.00611797
v 1.34514 0 0.00611797
l 81 82
v 0.317038 0 0.00611797
v 1.31704 0 0.00611797
l 83 84
v 0.626138 0 0.00611797
v 1.62614 0 0.00611797
l 85 86
v 0.598038 0 0.00611797
v 1.59804 0 0.00611797
l 87 88
v 0.176538 0 0.00611797
v 1.17654 0 0.00611797
l 89 90
v 0.148438 0 0.00611797
v 1.14844 0 0.00611797
l 91 92
v 0.850938 0 0.00611797
v 1.85094 0 0.00611797
l 93 94
v 0.822838 0 0.00611797
v 1.82284 0 0.00611797
l 95 96
v 0.738538 0 0.00611797
v 1.73854 0 0.00611797
l 97 98
v 0.710438 0 0.00611797
v 1.71044 0 0.00611797
l 99 100
v 0.794738 0 0.00611797
v 1.79474 0 0.00611797
l 101 102
v 0.766638 0 0.00611797
v 1.76664 0 0.00611797
l 103 104
v 0.0164878 0 -0.0292048
v 0.922796 0 0.393413
l 105 106
v 0.00807111 0 -0.0331296
v 0.914379 0 0.389489
l 107 108
v 0.0333211 0 -0.0213553
v 0.939629 0 0.401263
l 109 110
v 0.0249044 0 -0.0252801
v 0.931212 0 0.397338
l 111 112
v 0.185591 0 -0.281882
v -0.814409 0 -0.281882
l 113 114
v 0.213355 0 -0.281882
v -0.786645 0 -0.281882
l 115 116
v -0.00876222 0 -0.209611
v -0.00876222 0 0.790389
l 117 118
v -0.00876222 0 -0.233701
v -0.00876222 0 0.766299
l 119 120
v 0.0745319 0 -0.281882
v -0.925468 0 -0.281882
l 121 122
v 0.102297 0 -0.281882
v -0.897703 0 -0.281882
l 123 124
v 0.682338 0 0.00611797
v 1.68234 0 0.00611797
l 125 126
v 0.654238 0 0.00611797
v 1.65424 0 0.00611797
l 127 128
v 0.879038 0 0.00611797
v 1.87904 0 0.00611797
l 129 130
v 0.893088 0 0.00611797
v 1.89309 0 0.00611797
l 131 132
v 0.893591 0 -0.281882
v -0.106409 0 -0.281882
l 133 134
v 0.907473 0 -0.281882
v -0.0925269 0 -0.281882
l 135 136
v 0.796414 0 -0.281882
v -0.203586 0 -0.281882
l 137 138
v 0.824179 0 -0.281882
v -0.175821 0 -0.281882
l 139 140
v 0.935238 0 -0.281882
v -0.0647622 0 -0.281882
l 141 142
v 0.921355 0 -0.281882
v -0.0786446 0 -0.281882
l 143 144
v 0.851944 0 -0.281882
v -0.148056 0 -0.281882
l 145 146
v 0.879708 0 -0.281882
v -0.120292 0 -0.281882
l 147 148
v 0.0669878 0 -0.0056563
v 0.973296 0 0.416962
l 149 150
v 0.0585711 0 -0.00958105
v 0.964879 0 0.413037
l 151 152
v 0.0501544 0 -0.0135058
v 0.956462 0 0.409112
l 153 154
v 0.0417378 0 -0.0174306
v 0.948046 0 0.405188
l 155 156
v 0.0922378 0 0.00611797
v 1.09224 0 0.00611797
l 157 158
v 0.120338 0 0.00611797
v 1.12034 0 0.00611797
l 159 160
v 0.0838211 0 0.00219322
v 0.990129 0 0.424811
l 161 162
v 0.0754044 0 -0.00173154
v 0.981712 0 0.420887
l 163 164
v 0.288938 0 0.00611797
v 1.28894 0 0.00611797
l 165 166
v 0.260838 0 0.00611797
v 1.26084 0 0.00611797
l 167 168
v 0.513738 0 0.00611797
v 1.51374 0 0.00611797
l 169 170
v 0.485638 0 0.00611797
v 1.48564 0 0.00611797
l 171 172
v 0.352179 0 -0.281882
v -0.647821 0 -0.281882
l 173 174
v 0.379944 0 -0.281882
v -0.620056 0 -0.281882
l 175 176
v 0.518767 0 -0.281882
v -0.481233 0 -0.281882
l 177 178
v 0.546532 0 -0.281882
v -0.453468 0 -0.281882
l 179 180
v -0.00876222 0.0277857 -0.281882
v -0.00876222 -0.972214 -0.281882
l 181 182
v -0.00876222 0.0555714 -0.281882
v -0.00876222 -0.944429 -0.281882
l 183 184
v 0.185591 0.389 -0.281882
v -0.814409 0.389 -0.281882
l 185 186
v 0.213355 0.389 -0.281882
v -0.786645 0.389 -0.281882
l 187 188
v 0.629826 0.389 -0.281882
v -0.370174 0.389 -0.281882
l 189 190
v 0.657591 0.389 -0.281882
v -0.342409 0.389 -0.281882
l 191 192
v 0.352179 0.389 -0.281882
v -0.647821 0.389 -0.281882
l 193 194
v 0.379944 0.389 -0.281882
v -0.620056 0.389 -0.281882
l 195 196
v -0.00876222 0.305643 -0.281882
v -0.00876222 -0.694357 -0.281882
l 197 198
v -0.00876222 0.333429 -0.281882
v -0.00876222 -0.666571 -0.281882
l 199 200
v 0.0745319 0.389 -0.281882
v -0.925468 0.389 -0.281882
l 201 202
v 0.102297 0.389 -0.281882
v -0.897703 0.389 -0.281882
l 203 204
v -0.00876222 0.389 -0.281882
v -0.00876222 -0.611 -0.281882
l 205 206
v -0.00876222 0.361214 -0.281882
v -0.00876222 -0.638786 -0.281882
l 207 208
v 0.0190025 0.389 -0.281882
v -0.980998 0.389 -0.281882
l 209 210
v 0.0467672 0.389 -0.281882
v -0.953233 0.389 -0.281882
l 211 212
v 0.851944 0.389 -0.281882
v -0.148056 0.389 -0.281882
l 213 214
v 0.879708 0.389 -0.281882
v -0.120292 0.389 -0.281882
l 215 216
v -0.00876222 0.250071 -0.281882
v -0.00876222 -0.749929 -0.281882
l 217 218
v -0.00876222 0.277857 -0.281882
v -0.00876222 -0.722143 -0.281882
l 219 220
v 0.518767 0.389 -0.281882
v -0.481233 0.389 -0.281882
l 221 222
v 0.546532 0.389 -0.281882
v -0.453468 0.389 -0.281882
l 223 224
v 0.407708 0.389 -0.281882
v -0.592292 0.389 -0.281882
l 225 226
v 0.435473 0.389 -0.281882
v -0.564527 0.389 -0.281882
l 227 228
v 0.796414 0.389 -0.281882
v -0.203586 0.389 -0.281882
l 229 230
v 0.824179 0.389 -0.281882
v -0.175821 0.389 -0.281882
l 231 232
v 0.740885 0.389 -0.281882
v -0.259115 0.389 -0.281882
l 233 234
v 0.76865 0.389 -0.281882
v -0.23135 0.389 -0.281882
l 235 236
v 0.29665 0.389 -0.281882
v -0.70335 0.389 -0.281882
l 237 238
v 0.324414 0.389 -0.281882
v -0.675586 0.389 -0.281882
l 239 240
v 0.130061 0.389 -0.281882
v -0.869939 0.389 -0.281882
l 241 242
v 0.157826 0.389 -0.281882
v -0.842174 0.389 -0.281882
l 243 244
v 0.463238 0.389 -0.281882
v -0.536762 0.389 -0.281882
l 245 246
v 0.491002 0.389 -0.281882
v -0.508998 0.389 -0.281882
l 247 248
v 0.574297 0.389 -0.281882
v -0.425703 0.389 -0.281882
l 249 250
v 0.602061 0.389 -0.281882
v -0.397939 0.389 -0.281882
l 251 252
v 0.935238 0.389 -0.281882
v -0.0647622 0.389 -0.281882
l 253 254
v 0.921355 0.389 -0.281882
v -0.0786446 0.389 -0.281882
l 255 256
v 0.24112 0.389 -0.281882
v -0.75888 0.389 -0.281882
l 257 258
v 0.268885 0.389 -0.281882
v -0.731115 0.389 -0.281882
l 259 260
v -0.00876222 0.138929 -0.281882
v -0.00876222 -0.861071 -0.281882
l 261 262
v -0.00876222 0.166714 -0.281882
v -0.00876222 -0.833286 -0.281882
l 263 264
v -0.00876222 0.1945 -0.281882
v -0.00876222 -0.8055 -0.281882
l 265 266
v -0.00876222 0.222286 -0.281882
v -0.00876222 -0.777714 -0.281882
l 267 268
v -0.00876222 0.0833571 -0.281882
v -0.00876222 -0.916643 -0.281882
l 269 270
v -0.00876222 0.111143 -0.281882
v -0.00876222 -0.888857 -0.281882
l 271 272
v 0.685355 0.389 -0.281882
v -0.314645 0.389 -0.281882
l 273 274
v 0.71312 0.389 -0.281882
v -0.28688 0.389 -0.281882
l 275 276
v 0.893591 0.389 -0.281882
v -0.106409 0.389 -0.281882
l 277 278
v 0.907473 0.389 -0.281882
v -0.0925269 0.389 -0.281882
l 279 280
v 0.0922378 0.389 0.00611797
v 1.09224 0.389 0.00611797
l 281 282
v 0.106288 0.389 0.00611797
v 1.10629 0.389 0.00611797
l 283 284
v 0.457538 0.389 0.00611797
v 1.45754 0.389 0.00611797
l 285 286
v 0.429438 0.389 0.00611797
v 1.42944 0.389 0.00611797
l 287 288
v 0.513738 0.389 0.00611797
v 1.51374 0.389 0.00611797
l 289 290
v 0.485638 0.389 0.00611797
v 1.48564 0.389 0.00611797
l 291 292
v 0.401338 0.389 0.00611797
v 1.40134 0.389 0.00611797
l 293 294
v 0.373238 0.389 0.00611797
v 1.37324 0.389 0.00611797
l 295 296
v 0.850938 0.389 0.00611797
v 1.85094 0.389 0.00611797
l 297 298
v 0.822838 0.389 0.00611797
v 1.82284 0.389 0.00611797
l 299 300
v 0.738538 0.389 0.00611797
v 1.73854 0.389 0.00611797
l 301 302
v 0.710438 0.389 0.00611797
v 1.71044 0.389 0.00611797
l 303 304
v 0.682338 0.389 0.00611797
v 1.68234 0.389 0.00611797
l 305 306
v 0.654238 0.389 0.00611797
v 1.65424 0.389 0.00611797
l 307 308
v 0.134388 0.389 0.00611797
v 1.13439 0.389 0.00611797
l 309 310
v 0.120338 0.389 0.00611797
v 1.12034 0.389 0.00611797
l 311 312
v 0.176538 0.389 0.00611797
v 1.17654 0.389 0.00611797
l 313 314
v 0.148438 0.389 0.00611797
v 1.14844 0.389 0.00611797
l 315 316
v 0.288938 0.389 0.00611797
v 1.28894 0.389 0.00611797
l 317 318
v 0.260838 0.389 0.00611797
v 1.26084 0.389 0.00611797
l 319 320
v 0.345138 0.389 0.00611797
v 1.34514 0.389 0.00611797
l 321 322
v 0.317038 0.389 0.00611797
v 1.31704 0.389 0.00611797
l 323 324
v 0.232738 0.389 0.00611797
v 1.23274 0.389 0.00611797
l 325 326
v 0.204638 0.389 0.00611797
v 1.20464 0.389 0.00611797
l 327 328
v 0.626138 0.389 0.00611797
v 1.62614 0.389 0.00611797
l 329 330
v 0.598038 0.389 0.00611797
v 1.59804 0.389 0.00611797
l 331 332
v 0.921188 0.389 0.00611797
v 1.92119 0.389 0.00611797
l 333 334
v 0.907138 0.389 0.00611797
v 1.90714 0.389 0.00611797
l 335 336
v 0.794738 0.389 0.00611797
v 1.79474 0.389 0.00611797
l 337 338
v 0.766638 0.389 0.00611797
v 1.76664 0.389 0.00611797
l 339 340
v 0.569938 0.389 0.00611797
v 1.56994 0.389 0.00611797
l 341 342
v 0.541838 0.389 0.00611797
v 1.54184 0.389 0.00611797
l 343 344
v 0.879038 0.389 0.00611797
v 1.87904 0.389 0.00611797
l 345 346
v 0.893088 0.389 0.00611797
v 1.89309 0.389 0.00611797
l 347 348
v -0.00876222 0.389 -0.0409791
v 0.897546 0.389 0.381639
l 349 350
v -0.00876222 0.379 -0.0409791
v -0.00876222 1.379 -0.0409791
l 351 352
v -0.000345555 0.389 -0.0370543
v 0.905962 0.389 0.385564
l 353 354
v -0.00876222 0.369 -0.0409791
v -0.00876222 1.369 -0.0409791
l 355 356
v 0.0838211 0.389 0.00219322
v 0.990129 0.389 0.424811
l 357 358
v 0.0754044 0.389 -0.00173154
v 0.981712 0.389 0.420887
l 359 360
v -0.00876222 0 -0.0409791
v -0.00876222 1 -0.0409791
l 361 362
v -0.00876222 0.00963333 -0.0409791
v -0.00876222 1.00963 -0.0409791
l 363 364
v -0.00876222 0.289 -0.0409791
v -0.00876222 1.289 -0.0409791
l 365 366
v -0.00876222 0.299 -0.0409791
v -0.00876222 1.299 -0.0409791
l 367 368
v -0.00876222 0.0481667 -0.0409791
v -0.00876222 1.04817 -0.0409791
l 369 370
v -0.00876222 0.0385333 -0.0409791
v -0.00876222 1.03853 -0.0409791
l 371 372
v 0.0164878 0.389 -0.0292048
v 0.922796 0.389 0.393413
l 373 374
v 0.00807111 0.389 -0.0331296
v 0.914379 0.389 0.389489
l 375 376
v 0.0669878 0.389 -0.0056563
v 0.973296 0.389 0.416962
l 377 378
v 0.0585711 0.389 -0.00958105
v 0.964879 0.389 0.413037
l 379 380
v -0.00876222 0.0289 -0.0409791
v -0.00876222 1.0289 -0.0409791
l 381 382
v -0.00876222 0.0192667 -0.0409791
v -0.00876222 1.01927 -0.0409791
l 383 384
v -0.00876222 0.105967 -0.0409791
v -0.00876222 1.10597 -0.0409791
l 385 386
v -0.00876222 0.0963333 -0.0409791
v -0.00876222 1.09633 -0.0409791
l 387 388
v -0.00876222 0.0674333 -0.0409791
v -0.00876222 1.06743 -0.0409791
l 389 390
v -0.00876222 0.0578 -0.0409791
v -0.00876222 1.0578 -0.0409791
l 391 392
v 0.0501544 0.389 -0.0135058
v 0.956462 0.389 0.409112
l 393 394
v 0.0417378 0.389 -0.0174306
v 0.948046 0.389 0.405188
l 395 396
v -0.00876222 0.319 -0.0409791
v -0.00876222 1.319 -0.0409791
l 397 398
v -0.00876222 0.309 -0.0409791
v -0.00876222 1.309 -0.0409791
l 399 400
v -0.00876222 0.2023 -0.0409791
v -0.00876222 1.2023 -0.0409791
l 401 402
v -0.00876222 0.192667 -0.0409791
v -0.00876222 1.19267 -0.0409791
l 403 404
v -0.00876222 0.1445 -0.0409791
v -0.00876222 1.1445 -0.0409791
l 405 406
v -0.00876222 0.134867 -0.0409791
v -0.00876222 1.13487 -0.0409791
l 407 408
v -0.00876222 0.0867 -0.0409791
v -0.00876222 1.0867 -0.0409791
l 409 410
v -0.00876222 0.0770667 -0.0409791
v -0.00876222 1.07707 -0.0409791
l 411 412
v -0.00876222 0.240833 -0.0409791
v -0.00876222 1.24083 -0.0409791
l 413 414
v -0.00876222 0.2312 -0.0409791
v -0.00876222 1.2312 -0.0409791
l 415 416
v -0.00876222 0.221567 -0.0409791
v -0.00876222 1.22157 -0.0409791
l 417 418
v -0.00876222 0.211933 -0.0409791
v -0.00876222 1.21193 -0.0409791
l 419 420
v -0.00876222 0.125233 -0.0409791
v -0.00876222 1.12523 -0.0409791
l 421 422
v -0.00876222 0.1156 -0.0409791
v -0.00876222 1.1156 -0.0409791
l 423 424
v -0.00876222 0.2601 -0.0409791
v -0.00876222 1.2601 -0.0409791
l 425 426
v -0.00876222 0.250467 -0.0409791
v -0.00876222 1.25047 -0.0409791
l 427 428
v -0.00876222 0.163767 -0.0409791
v -0.00876222 1.16377 -0.0409791
l 429 430
v -0.00876222 0.154133 -0.0409791
v -0.00876222 1.15413 -0.0409791
l 431 432
v -0.00876222 0.183033 -0.0409791
v -0.00876222 1.18303 -0.0409791
l 433 434
v -0.00876222 0.1734 -0.0409791
v -0.00876222 1.1734 -0.0409791
l 435 436
v -0.00876222 0.279367 -0.0409791
v -0.00876222 1.27937 -0.0409791
l 437 438
v -0.00876222 0.269733 -0.0409791
v -0.00876222 1.26973 -0.0409791
l 439 440
v 0.0333211 0.389 -0.0213553
v 0.939629 0.389 0.401263
l 441 442
v 0.0249044 0.389 -0.0252801
v 0.931212 0.389 0.397338
l 443 444
v -0.00876222 0.359 -0.0409791
v -0.00876222 1.359 -0.0409791
l 445 446
v -0.00876222 0.349 -0.0409791
v -0.00876222 1.349 -0.0409791
l 447 448
v -0.00876222 0.339 -0.0409791
v -0.00876222 1.339 -0.0409791
l 449 450
v -0.00876222 0.329 -0.0409791
v -0.00876222 1.329 -0.0409791
l 451 452
v 1.02028 0.341596 -0.0412865
v 0.605772 0.985093 0.602214
l 453 454
v 1.0183 0.344668 -0.0382138
v 0.576184 0.978911 0.596031
l 455 456
v 1.01619 0.347697 -0.240579
v 1.45831 -0.286547 0.393665
l 457 458
v 1.0183 0.344668 -0.23755
v 1.43281 -0.298829 0.40595
l 459 460
v 0.971747 0.382097 -0.00078512
v 0.0836227 0.707085 0.324204
l 461 462
v 0.967507 0.383649 0.000766512
v 0.0540808 0.671443 0.288564
l 463 464
v 0.963146 0.385023 0.00214056
v 0.0268876 0.633441 0.250554
l 465 466
v 0.958676 0.386209 0.00332658
v 0.0024561 0.593141 0.210264
l 467 468
v 0.95411 0.387197 -0.280079
v 1.91033 0.180265 -0.0731404
l 469 470
v 0.958676 0.386209 -0.279091
v 1.89493 0.13779 -0.0306785
l 471 472
v 0.963146 0.385023 -0.277905
v 1.87657 0.0972286 0.0098956
l 473 474
v 0.967507 0.383649 -0.276531
v 1.85563 0.0586603 0.0484576
l 475 476
v 1.01619 0.347697 -0.0351854
v 0.546033 0.971777 0.588893
l 477 478
v 1.01395 0.350677 -0.0322055
v 0.515227 0.963572 0.580688
l 479 480
v 1.01157 0.353603 -0.029279
v 0.483734 0.954185 0.571301
l 481 482
v 1.00904 0.356471 -0.0264113
v 0.451523 0.943484 0.560602
l 483 484
v 1.01157 0.353603 -0.246485
v 1.51029 -0.259293 0.366407
l 485 486
v 1.01395 0.350677 -0.243559
v 1.48411 -0.273403 0.380521
l 487 488
v 1.00638 0.359274 -0.252156
v 1.5639 -0.22774 0.334858
l 489 490
v 1.00904 0.356471 -0.249353
v 1.53688 -0.24411 0.351228
l 491 492
v 1.00638 0.359274 -0.0236084
v 0.418579 0.931324 0.548444
l 493 494
v 1.00358 0.362005 -0.020877
v 0.38523 0.917723 0.534844
l 495 496
v 1.00062 0.364658 -0.257541
v 1.61897 -0.191058 0.298182
l 497 498
v 1.00358 0.362005 -0.254887
v 1.59138 -0.210046 0.317164
l 499 500
v 0.95411 0.387197 0.00431456
v -0.0187854 0.550713 0.167826
l 501 502
v 0.949466 0.387977 0.0050952
v -0.0364255 0.506338 0.123457
l 503 504
v 0.944759 0.388542 -0.281424
v 1.93065 0.270181 -0.163063
l 505 506
v 0.949466 0.387977 -0.280859
v 1.92236 0.224461 -0.117349
l 507 508
v 1.00062 0.364658 -0.0182235
v 0.351592 0.902601 0.519713
l 509 510
v 0.997525 0.367227 -0.015655
v 0.317696 0.885797 0.502918
l 511 512
v 0.944759 0.388542 0.00566029
v -0.0500771 0.460311 0.0774306
l 513 514
v 0.940009 0.388885 0.00600293
v -0.05941 0.412981 0.030099
l 515 516
v 0.994279 0.369703 -0.013179
v 0.283632 0.867188 0.484304
l 517 518
v 0.990886 0.372078 -0.0108036
v 0.249456 0.846568 0.463688
l 519 520
v 0.987346 0.374344 -0.00853809
v 0.215328 0.823783 0.440899
l 521 522
v 0.983659 0.37649 -0.00639222
v 0.181384 0.7986 0.415718
l 523 524
v 0.994279 0.369703 -0.262585
v 1.67411 -0.148867 0.255985
l 525 526
v 0.997525 0.367227 -0.260109
v 1.64656 -0.170716 0.277827
l 527 528
v 0.935238 0.389 -0.281882
v 1.93466 0.364904 -0.257786
l 529 530
v 0.940009 0.388885 -0.281767
v 1.93485 0.317116 -0.209998
l 531 532
v 0.987346 0.374344 -0.267226
v 1.72878 -0.100146 0.207264
l 533 534
v 0.990886 0.372078 -0.26496
v 1.70153 -0.125406 0.232524
l 535 536
v 0.979829 0.378505 -0.271387
v 1.7821 -0.043605 0.150723
l 537 538
v 0.983659 0.37649 -0.269372
v 1.75568 -0.0729485 0.180066
l 539 540
v 0.979829 0.378505 -0.00437681
v 0.147878 0.770843 0.38796
l 541 542
v 0.975857 0.380378 -0.00250358
v 0.115098 0.740305 0.357423
l 543 544
v 0.971747 0.382097 -0.274979
v 1.83251 0.0221708 0.0849472
l 545 546
v 0.975857 0.380378 -0.27326
v 1.80781 -0.0119589 0.119077
l 547 548
v 1.02028 0.341596 -0.234478
v 1.4076 -0.310318 0.417436
l 549 550
v 1.02213 0.338483 -0.231365
v 1.38263 -0.321079 0.428194
l 551 552
v 1.02385 0.335333 -0.0475487
v 0.663352 0.994895 0.612009
l 553 554
v 1.02213 0.338483 -0.0443993
v 0.634812 0.990396 0.607515
l 555 556
v 1.02385 0.335333 -0.228215
v 1.35777 -0.331187 0.438305
l 557 558
v 1.02545 0.332151 -0.225033
v 1.3331 -0.340659 0.44778
l 559 560
v 1.02692 0.328938 -0.0539439
v 0.719265 1.00175 0.618869
l 561 562
v 1.02545 0.332151 -0.0507312
v 0.691528 0.998671 0.615789
l 563 564
v 1.02692 0.328938 -0.22182
v 1.30845 -0.349566 0.456684
l 565 566
v 1.02826 0.325698 -0.0571837
v 0.746723 1.0042 0.621321
l 567 568
v 1.01619 0.0413034 -0.0351854
v 0.546032 -0.582776 0.588894
l 569 570
v 1.01395 0.0383235 -0.0322055
v 0.515226 -0.57457 0.580689
l 571 572
v 1.01157 0.035397 -0.029279
v 0.483734 -0.565184 0.571302
l 573 574
v 1.00904 0.0325293 -0.0264113
v 0.451523 -0.554484 0.560602
l 575 576
v 0.979829 0.0104948 -0.00437681
v 0.147877 -0.381842 0.38796
l 577 578
v 0.975857 0.00862155 -0.00250358
v 0.115098 -0.351305 0.357423
l 579 580
v 0.987346 0.0146561 -0.00853809
v 0.215327 -0.434781 0.440899
l 581 582
v 0.983659 0.0125102 -0.00639222
v 0.181384 -0.4096 0.415718
l 583 584
v 1.00638 0.0297264 -0.0236084
v 0.418579 -0.542326 0.548444
l 585 586
v 1.00358 0.0269949 -0.020877
v 0.385231 -0.528725 0.534843
l 587 588
v 1.00062 0.0243415 -0.0182235
v 0.35159 -0.513597 0.519715
l 589 590
v 0.997525 0.021773 -0.015655
v 0.317697 -0.496799 0.502917
l 591 592
v 0.971747 0.00690309 -0.00078512
v 0.0836229 -0.318086 0.324204
l 593 594
v 0.967507 0.00535146 0.000766512
v 0.0540816 -0.282446 0.288564
l 595 596
v 0.963146 0.00397741 0.00214056
v 0.0268863 -0.244436 0.250554
l 597 598
v 0.958676 0.00279139 0.00332658
v 0.00245722 -0.204146 0.210264
l 599 600
v 0.95411 0.00180342 0.00431456
v -0.0187861 -0.161708 0.167826
l 601 602
v 0.949466 0.00102277 0.0050952
v -0.0364255 -0.117339 0.123457
l 603 604
v 0.994279 0.0192969 -0.013179
v 0.283631 -0.478187 0.484305
l 605 606
v 0.990886 0.0169216 -0.0108036
v 0.249457 -0.457569 0.463687
l 607 608
v 0.944759 0.000457684 0.00566029
v -0.050077 -0.0713126 0.0774306
l 609 610
v 0.940009 0.000115039 0.00600293
v -0.05941 -0.023981 0.030099
l 611 612
v 1.02028 0.0474044 -0.0412865
v 0.605773 -0.596095 0.602212
l 613 614
v 1.0183 0.0443318 -0.0382138
v 0.576184 -0.589912 0.596031
l 615 616
v 1.02385 0.0536666 -0.0475487
v 0.663351 -0.605893 0.612011
l 617 618
v 1.02213 0.0505173 -0.0443993
v 0.634812 -0.601396 0.607515
l 619 620
v 1.02692 0.0600618 -0.0539439
v 0.719266 -0.612749 0.618868
l 621 622
v 1.02545 0.0568492 -0.0507312
v 0.691529 -0.609671 0.615789
l 623 624
v 1.02826 0.0633017 -0.0571837
v 0.746723 -0.615203 0.62132
l 625 626
v 0.944759 0.000457684 -0.281424
v -0.0500771 -0.0713127 -0.353193
l 627 628
v 0.940009 0.000115039 -0.281767
v -0.05941 -0.023981 -0.305863
l 629 630
v 0.95411 0.00180342 -0.280079
v -0.0187864 -0.161708 -0.443589
l 631 632
v 0.949466 0.00102277 -0.280859
v -0.0364255 -0.117339 -0.39922
l 633 634
v 0.963146 0.00397741 -0.277905
v 0.0268861 -0.244436 -0.526317
l 635 636
v 0.958676 0.00279139 -0.279091
v 0.00245733 -0.204146 -0.486029
l 637 638
v 0.971747 0.00690309 -0.274979
v 0.0836227 -0.318086 -0.599967
l 639 640
v 0.967507 0.00535146 -0.276531
v 0.0540824 -0.282446 -0.564331
l 641 642
v 0.979829 0.0104948 -0.271387
v 0.147878 -0.381842 -0.663725
l 643 644
v 0.975857 0.00862155 -0.27326
v 0.115098 -0.351305 -0.633187
l 645 646
v 0.987346 0.0146561 -0.267226
v 0.215328 -0.434781 -0.716665
l 647 648
v 0.983659 0.0125102 -0.269372
v 0.181384 -0.4096 -0.691482
l 649 650
v 0.994279 0.0192969 -0.262585
v 0.283632 -0.478186 -0.76007
l 651 652
v 0.990886 0.0169216 -0.26496
v 0.249456 -0.45757 -0.73945
l 653 654
v 1.00062 0.0243415 -0.257541
v 0.35159 -0.513597 -0.795479
l 655 656
v 0.997525 0.021773 -0.260109
v 0.317696 -0.4968 -0.778679
l 657 658
v 1.00638 0.0297264 -0.252156
v 0.418579 -0.542326 -0.824206
l 659 660
v 1.00358 0.0269949 -0.254887
v 0.385232 -0.528724 -0.810609
l 661 662
v 1.01157 0.035397 -0.246485
v 0.483734 -0.565183 -0.847067
l 663 664
v 1.00904 0.0325293 -0.249353
v 0.451523 -0.554484 -0.836366
l 665 666
v 1.01619 0.0413034 -0.240579
v 0.546033 -0.582776 -0.864659
l 667 668
v 1.01395 0.0383235 -0.243559
v 0.515226 -0.574571 -0.856452
l 669 670
v 1.02028 0.0474044 -0.234478
v 0.605773 -0.596095 -0.877977
l 671 672
v 1.0183 0.0443318 -0.23755
v 0.576183 -0.589912 -0.871794
l 673 674
v 1.02385 0.0536666 -0.228215
v 0.663351 -0.605893 -0.887776
l 675 676
v 1.02213 0.0505173 -0.231365
v 0.634811 -0.601397 -0.883279
l 677 678
v 1.02692 0.0600618 -0.22182
v 0.719266 -0.612749 -0.894632
l 679 680
v 1.02545 0.0568492 -0.225033
v 0.691529 -0.609671 -0.891553
l 681 682
v 1.02826 0.0633017 -0.21858
v 0.746723 -0.615204 -0.897084
l 683 684
v -0.00876222 0.389 -0.257792
v -0.00876222 0.389 -1.25779
l 685 686
v -0.00876222 0.389 -0.233701
v -0.00876222 0.389 -1.2337
l 687 688
v -0.00876222 0.389 -0.185521
v -0.00876222 0.389 -1.18552
l 689 690
v -0.00876222 0.389 -0.209611
v -0.00876222 0.389 -1.20961
l 691 692
v -0.00876222 0.389 -0.0891597
v -0.00876222 0.389 -1.08916
l 693 694
v -0.00876222 0.389 -0.11325
v -0.00876222 0.389 -1.11325
l 695 696
v -0.00876222 0.389 -0.13734
v -0.00876222 0.389 -1.13734
l 697 698
v -0.00876222 0.389 -0.161431
v -0.00876222 0.389 -1.16143
l 699 700
v -0.00876222 0.389 -0.0409791
v -0.00876222 0.389 -1.04098
l 701 702
v -0.00876222 0.389 -0.0650694
v -0.00876222 0.389 -1.06507
l 703 704
